<svg xmlns="http://www.w3.org/2000/svg" version="1.1" xmlns:xlink="http://www.w3.org/1999/xlink" xmlns:svgjs="http://svgjs.com/svgjs" width="512" height="512" x="0" y="0" viewBox="0 0 512 512" style="enable-background:new 0 0 512 512" xml:space="preserve" class=""><g><g><g><circle cx="255.612" cy="267" fill="#fed2a4" r="245" data-original="#fed2a4" class=""></circle></g><path d="m311.612 360c-2.206 0-4-1.794-4-4v-220h-265.533l-6.467 1v237.909c10.951 22.285 25.182 42.665 42.073 60.505h324.927c5.523 0 10-4.477 10-10v-65.414z" fill="#ffffff" data-original="#ffffff" class=""></path><g><path d="m35.612 374.909c10.951 22.285 25.182 42.665 42.073 60.505h7.927v-298.414h-50z" fill="#f5f8f9" data-original="#f5f8f9" class=""></path></g><g><g><path d="m307.612 92h-257c-8.284 0-15 6.716-15 15v30h272z" fill="#26a6fe" data-original="#26a6fe" class=""></path><g><path d="m100.612 92h-50c-8.284 0-15 6.716-15 15v30h50v-30c0-8.284 6.716-15 15-15z" fill="#0593fc" data-original="#0593fc"></path></g><g><g><circle cx="63.112" cy="116.5" fill="#ffffff" r="7.5" data-original="#ffffff" class=""></circle></g><g><circle cx="87.112" cy="116.5" fill="#ffffff" r="7.5" data-original="#ffffff" class=""></circle></g><g><circle cx="111.112" cy="116.5" fill="#ffffff" r="7.5" data-original="#ffffff" class=""></circle></g></g></g><g><g><g><path d="m212.022 276.605h-139.523c-2.804 0-5.078-2.273-5.078-5.078v-94.449c0-2.804 2.273-5.078 5.078-5.078h139.523c2.804 0 5.078 2.273 5.078 5.078v94.449c0 2.805-2.274 5.078-5.078 5.078z" fill="#c4e2ff" data-original="#c4e2ff" class=""></path></g><g><path d="m87.933 271.527v-94.449c0-2.804 2.273-5.078 5.078-5.078h-20.512c-2.804 0-5.078 2.273-5.078 5.078v94.449c0 2.804 2.273 5.078 5.078 5.078h20.512c-2.805 0-5.078-2.273-5.078-5.078z" fill="#b3dafe" data-original="#b3dafe" class=""></path></g><g><g><path d="m149.292 234.966h-14.063c-21.076 0-38.162 17.086-38.162 38.162v3.477h90.387v-3.477c0-21.076-17.086-38.162-38.162-38.162z" fill="#26a6fe" data-original="#26a6fe" class=""></path></g><g><circle cx="142.26" cy="213.639" fill="#0593fc" r="32.499" data-original="#0593fc"></circle></g><g><path d="m130.615 213.639c0-14.3 9.24-26.434 22.072-30.78-3.274-1.109-6.778-1.719-10.426-1.719-17.949 0-32.499 14.55-32.499 32.499s14.55 32.499 32.499 32.499c3.648 0 7.152-.61 10.426-1.719-12.832-4.346-22.072-16.48-22.072-30.78z" fill="#0182fc" data-original="#0182fc"></path></g></g></g><g><g><path d="m212.022 396h-139.523c-2.804 0-5.078-2.273-5.078-5.078v-94.449c0-2.804 2.273-5.078 5.078-5.078h139.523c2.804 0 5.078 2.273 5.078 5.078v94.449c0 2.805-2.274 5.078-5.078 5.078z" fill="#97d729" data-original="#97d729"></path></g><g><path d="m87.933 390.922v-94.449c0-2.804 2.273-5.078 5.078-5.078h-20.512c-2.804 0-5.078 2.273-5.078 5.078v94.449c0 2.804 2.273 5.078 5.078 5.078h20.512c-2.805 0-5.078-2.273-5.078-5.078z" fill="#8bc727" data-original="#8bc727" class=""></path></g><g><g><path d="m149.292 354.361h-14.063c-21.076 0-38.162 17.086-38.162 38.162v3.477h90.387v-3.477c0-21.076-17.086-38.162-38.162-38.162z" fill="#26a6fe" data-original="#26a6fe" class=""></path></g><g><circle cx="142.26" cy="333.034" fill="#0593fc" r="32.499" data-original="#0593fc"></circle></g><g><path d="m130.615 333.034c0-14.3 9.24-26.434 22.072-30.78-3.274-1.109-6.778-1.719-10.426-1.719-17.949 0-32.499 14.55-32.499 32.499s14.55 32.499 32.499 32.499c3.648 0 7.152-.61 10.426-1.719-12.832-4.346-22.072-16.48-22.072-30.78z" fill="#0182fc" data-original="#0182fc"></path></g></g></g><g><path d="m307.612 172h-71.41c-2.805 0-5.078 2.273-5.078 5.078v94.449c0 2.804 2.273 5.078 5.078 5.078h71.41z" fill="#fed402" data-original="#fed402"></path><g><path d="m251.933 271.527v-94.449c0-2.804 2.273-5.078 5.078-5.078h-20.809c-2.804 0-5.078 2.273-5.078 5.078v94.449c0 2.804 2.273 5.078 5.078 5.078h20.809c-2.805 0-5.078-2.273-5.078-5.078z" fill="#fac600" data-original="#fac600"></path></g><g><path d="m307.612 234.966h-8.68c-21.076 0-38.162 17.085-38.162 38.162v3.477h46.842z" fill="#26a6fe" data-original="#26a6fe" class=""></path><path d="m307.612 181.182c-.546-.027-1.096-.042-1.648-.042-17.949 0-32.499 14.55-32.499 32.499s14.55 32.499 32.499 32.499c.553 0 1.102-.014 1.648-.042z" fill="#0593fc" data-original="#0593fc"></path><path d="m307.612 240.329c-8.451-5.866-13.997-15.622-13.997-26.69s5.546-20.823 13.997-26.69v-5.743c-.548-.028-1.093-.066-1.648-.066-17.949 0-32.499 14.55-32.499 32.499s14.55 32.499 32.499 32.499c.555 0 1.1-.038 1.648-.066z" fill="#0182fc" data-original="#0182fc"></path></g></g><g><path d="m311.612 360c-2.206 0-4-1.794-4-4v-64.605h-71.41c-2.805 0-5.078 2.273-5.078 5.078v94.449c0 2.804 2.273 5.078 5.078 5.078h139.523c2.804 0 5.078-2.273 5.078-5.078v-30.922z" fill="#c4e2ff" data-original="#c4e2ff" class=""></path><g><path d="m251.933 390.922v-94.449c0-2.804 2.273-5.078 5.078-5.078h-20.809c-2.804 0-5.078 2.273-5.078 5.078v94.449c0 2.804 2.273 5.078 5.078 5.078h20.809c-2.805 0-5.078-2.273-5.078-5.078z" fill="#b3dafe" data-original="#b3dafe" class=""></path></g><g><path d="m332.961 360h-21.35c-2.206 0-4-1.794-4-4v-1.639h-8.68c-21.076 0-38.162 17.086-38.162 38.162v3.477h90.387v-3.477c.001-13.756-7.279-25.808-18.195-32.523z" fill="#26a6fe" data-original="#26a6fe" class=""></path><path d="m311.612 360c-2.206 0-4-1.794-4-4v-55.423c-.546-.027-1.096-.042-1.648-.042-17.949 0-32.499 14.55-32.499 32.499s14.55 32.499 32.499 32.499c6.719 0 12.961-2.04 18.143-5.532h-12.495z" fill="#0593fc" data-original="#0593fc"></path><path d="m293.615 333.034c0-11.068 5.546-20.824 13.997-26.69v-5.742c-.548-.028-1.093-.066-1.648-.066-17.949 0-32.499 14.55-32.499 32.499s14.55 32.499 32.499 32.499c3.518 0 6.902-.566 10.075-1.6-13.016-4.243-22.424-16.47-22.424-30.9z" fill="#0182fc" data-original="#0182fc"></path><g><path d="m497.8 54h-187.921l-3.267 1v301c0 2.761 2.239 5 5 5h184.401c2.761 0 5-2.239 5-5v-301z" fill="#9faced" data-original="#9faced" class=""></path></g><path d="m349 356v-301l3.267-1h-42.388l-3.267 1v301c0 2.761 2.239 5 5 5h42.388c-2.761 0-5-2.239-5-5z" fill="#8d9cdb" data-original="#8d9cdb" class=""></path></g></g></g></g><g><circle cx="201.016" cy="187.5" fill="#fd4755" r="7.5" data-original="#fd4755"></circle></g><g><circle cx="201.016" cy="308.5" fill="#fd4755" r="7.5" data-original="#fd4755"></circle></g><g><g><path d="m491.388 0h-174.401c-5.523 0-10 4.477-10 10v45h194.401v-45c0-5.523-4.477-10-10-10z" fill="#7a8ccb" data-original="#7a8ccb" class=""></path></g><path d="m359.375 0h-42.388c-5.523 0-10 4.477-10 10v45h42.388v-45c0-5.523 4.477-10 10-10z" fill="#596ca9" data-original="#596ca9" class=""></path><g><g><g><path d="m466.983 102.5h-77.595c-4.142 0-7.5-3.357-7.5-7.5s3.358-7.5 7.5-7.5h77.595c4.142 0 7.5 3.357 7.5 7.5s-3.358 7.5-7.5 7.5z" fill="#7a8ccb" data-original="#7a8ccb" class=""></path></g><g><path d="m436.388 128.5h-47c-4.142 0-7.5-3.357-7.5-7.5s3.358-7.5 7.5-7.5h47c4.142 0 7.5 3.357 7.5 7.5s-3.358 7.5-7.5 7.5z" fill="#7a8ccb" data-original="#7a8ccb" class=""></path></g></g><g><circle cx="353.388" cy="108" fill="#ffffff" r="22" data-original="#ffffff" class=""></circle></g><g><path d="m347.612 108c0-9.284 5.754-17.219 13.888-20.449-2.511-.997-5.246-1.551-8.112-1.551-12.15 0-22 9.85-22 22s9.85 22 22 22c2.866 0 5.601-.554 8.112-1.551-8.134-3.23-13.888-11.165-13.888-20.449z" fill="#f5f8f9" data-original="#f5f8f9" class=""></path></g></g><g><g><g><path d="m466.983 165.5h-77.595c-4.142 0-7.5-3.357-7.5-7.5s3.358-7.5 7.5-7.5h77.595c4.142 0 7.5 3.357 7.5 7.5s-3.358 7.5-7.5 7.5z" fill="#7a8ccb" data-original="#7a8ccb" class=""></path></g><g><path d="m416.388 191.5h-27c-4.142 0-7.5-3.357-7.5-7.5s3.358-7.5 7.5-7.5h27c4.142 0 7.5 3.357 7.5 7.5s-3.358 7.5-7.5 7.5z" fill="#7a8ccb" data-original="#7a8ccb" class=""></path></g></g><g><circle cx="353.388" cy="171" fill="#c4e2ff" r="22" data-original="#c4e2ff" class=""></circle></g><g><path d="m347.612 171c0-9.284 5.754-17.219 13.888-20.449-2.511-.997-5.246-1.551-8.112-1.551-12.15 0-22 9.85-22 22s9.85 22 22 22c2.866 0 5.601-.554 8.112-1.551-8.134-3.23-13.888-11.165-13.888-20.449z" fill="#b3dafe" data-original="#b3dafe" class=""></path></g></g><g><g><g><path d="m466.983 228.5h-77.595c-4.142 0-7.5-3.357-7.5-7.5s3.358-7.5 7.5-7.5h77.595c4.142 0 7.5 3.357 7.5 7.5s-3.358 7.5-7.5 7.5z" fill="#7a8ccb" data-original="#7a8ccb" class=""></path></g><g><path d="m446.388 254.5h-57c-4.142 0-7.5-3.357-7.5-7.5s3.358-7.5 7.5-7.5h57c4.142 0 7.5 3.357 7.5 7.5s-3.358 7.5-7.5 7.5z" fill="#7a8ccb" data-original="#7a8ccb" class=""></path></g></g><g><circle cx="353.388" cy="234" fill="#97d729" r="22" data-original="#97d729"></circle></g><g><path d="m347.612 234c0-9.284 5.754-17.219 13.888-20.449-2.511-.997-5.246-1.551-8.112-1.551-12.15 0-22 9.85-22 22s9.85 22 22 22c2.866 0 5.601-.554 8.112-1.551-8.134-3.23-13.888-11.165-13.888-20.449z" fill="#8bc727" data-original="#8bc727" class=""></path></g></g><g><g><g><path d="m466.983 291.5h-77.595c-4.142 0-7.5-3.357-7.5-7.5s3.358-7.5 7.5-7.5h77.595c4.142 0 7.5 3.357 7.5 7.5s-3.358 7.5-7.5 7.5z" fill="#7a8ccb" data-original="#7a8ccb" class=""></path></g><g><path d="m426.388 317.5h-37c-4.142 0-7.5-3.357-7.5-7.5s3.358-7.5 7.5-7.5h37c4.142 0 7.5 3.357 7.5 7.5s-3.358 7.5-7.5 7.5z" fill="#7a8ccb" data-original="#7a8ccb" class=""></path></g></g><g><circle cx="353.388" cy="297" fill="#fed402" r="22" data-original="#fed402"></circle></g><g><path d="m347.612 297c0-9.284 5.754-17.219 13.888-20.449-2.511-.997-5.246-1.551-8.112-1.551-12.15 0-22 9.85-22 22s9.85 22 22 22c2.866 0 5.601-.554 8.112-1.551-8.134-3.23-13.888-11.165-13.888-20.449z" fill="#fac600" data-original="#fac600"></path></g></g></g><g><g><g><path d="m478.638 37.25h-24.595c-4.142 0-7.5-3.357-7.5-7.5s3.358-7.5 7.5-7.5h24.595c4.142 0 7.5 3.357 7.5 7.5s-3.358 7.5-7.5 7.5z" fill="#b6c4ff" data-original="#b6c4ff" class=""></path></g></g><g><g><circle cx="329.737" cy="29.75" fill="#fed402" r="7.5" data-original="#fed402"></circle></g><g><circle cx="353.737" cy="29.75" fill="#b6c4ff" r="7.5" data-original="#b6c4ff" class=""></circle></g></g></g></g></g></svg>